HIERARCHY
ROOT Hips
{
	OFFSET -3.958830 18.904000 13.208200
	CHANNELS 6 Xposition Yposition Zposition Zrotation Yrotation Xrotation 
	JOINT LHipJoint
	{
		OFFSET 0.000000 0.000000 0.000000
		CHANNELS 3 Zrotation Yrotation Xrotation
		JOINT LeftUpLeg
		{
			OFFSET 1.800000 -1.400000 0.085000
			CHANNELS 3 Zrotation Yrotation Xrotation
			JOINT LeftLeg
			{
				OFFSET 2.215000 -6.000000 0.000000
				CHANNELS 3 Zrotation Yrotation Xrotation
				JOINT LeftFoot
				{
					OFFSET 2.500000 -6.900000 0.000000
					CHANNELS 3 Zrotation Yrotation Xrotation
					JOINT LeftToeBase
					{
						OFFSET 0.200000 -0.500000 1.950000
						CHANNELS 3 Zrotation Yrotation Xrotation
						End Site
						{
							OFFSET 0.000000 0.000000 0.000000
						}
					}
				}
			}
		}
	}
	JOINT RHipJoint
	{
		OFFSET 0.000000 0.000000 0.000000
		CHANNELS 3 Zrotation Yrotation Xrotation
		JOINT RightUpLeg
		{
			OFFSET -1.800000 -1.400000 0.085000
			CHANNELS 3 Zrotation Yrotation Xrotation
			JOINT RightLeg
			{
				OFFSET -2.215000 -6.000000 0.000000
				CHANNELS 3 Zrotation Yrotation Xrotation
				JOINT RightFoot
				{
					OFFSET -2.500000 -6.900000 0.000000
					CHANNELS 3 Zrotation Yrotation Xrotation
					JOINT RightToeBase
					{
						OFFSET -0.200000 -0.500000 1.950000
						CHANNELS 3 Zrotation Yrotation Xrotation
						End Site
						{
							OFFSET 0.000000 0.000000 0.000000
						}
					}
				}
			}
		}
	}
	JOINT LowerBack
	{
		OFFSET 0.000000 0.000000 0.000000
		CHANNELS 3 Zrotation Yrotation Xrotation
		JOINT Spine
		{
			OFFSET -0.087000 1.940000 -0.288900
			CHANNELS 3 Zrotation Yrotation Xrotation
			JOINT Spine1
			{
				OFFSET 0.000000 1.950000 0.060000
				CHANNELS 3 Zrotation Yrotation Xrotation
				JOINT Neck
				{
					OFFSET 0.000000 0.000000 0.000000
					CHANNELS 3 Zrotation Yrotation Xrotation
					JOINT Neck1
					{
						OFFSET 0.000000 1.600000 0.340000
						CHANNELS 3 Zrotation Yrotation Xrotation
						JOINT Head
						{
							OFFSET 0.000000 1.667000 -0.240000
							CHANNELS 3 Zrotation Yrotation Xrotation
							End Site
							{
								OFFSET 0.000000 0.000000 0.000000
							}
						}
					}
				}
				JOINT LeftShoulder
				{
					OFFSET 0.000000 0.000000 0.000000
					CHANNELS 3 Zrotation Yrotation Xrotation
					JOINT LeftArm
					{
						OFFSET 2.700000 1.550000 -0.730000
						CHANNELS 3 Zrotation Yrotation Xrotation
						JOINT LeftForeArm
						{
							OFFSET 5.450000 0.000000 0.000000
							CHANNELS 3 Zrotation Yrotation Xrotation
							JOINT LeftHand
							{
								OFFSET 3.450000 0.000000 0.000000
								CHANNELS 3 Zrotation Yrotation Xrotation
								JOINT LeftHandIndex1
								{
									OFFSET 0.750000 0.000000 0.000000
									CHANNELS 3 Zrotation Yrotation Xrotation
									End Site
									{
										OFFSET 0.000000 0.000000 0.000000
									}
								}
							}
						}
					}
				}
				JOINT RightShoulder
				{
					OFFSET 0.000000 0.000000 0.000000
					CHANNELS 3 Zrotation Yrotation Xrotation
					JOINT RightArm
					{
						OFFSET -2.700000 1.550000 -0.730000
						CHANNELS 3 Zrotation Yrotation Xrotation
						JOINT RightForeArm
						{
							OFFSET -5.450000 0.000000 0.000000
							CHANNELS 3 Zrotation Yrotation Xrotation
							JOINT RightHand
							{
								OFFSET -3.450000 0.000000 0.000000
								CHANNELS 3 Zrotation Yrotation Xrotation
								JOINT RightHandIndex1
								{
									OFFSET -0.750000 0.000000 0.000000
									CHANNELS 3 Zrotation Yrotation Xrotation
									End Site
									{
										OFFSET 0.000000 0.000000 0.000000
									}
								}
							}
						}
					}
				}
			}
		}
	}
}
MOTION
Frames: 14
Frame Time: 0.016667
-1.040790 16.852980 -1.125190 0.901734 -18.284616 0.617150 -14.938477 13.361503 3.129420 9.811428 -0.725575 -7.164900 -8.104131 4.596528 1.697975 -0.201926 4.158419 3.225366 -0.026860 -0.064770 -0.125140 18.355295 -10.555991 2.766541 -18.719306 -0.175750 -14.452902 -0.229604 -2.634978 0.361800 -0.036186 -3.139613 3.313003 0.083510 0.307900 0.014930 -3.906022 -2.619142 -7.660555 10.135503 -5.117350 9.466971 -10.213294 -3.162437 6.953310 1.549214 -6.533173 -12.099264 -14.405933 7.245438 31.801501 -1.441080 4.468130 -4.352830 15.472989 -0.994604 2.977686 33.396955 9.114403 2.473445 31.837227 -4.777606 -0.029545 -4.335428 3.015107 0.185330 0.169560 -0.124260 0.084350 -18.651599 5.489142 5.568778 -33.130487 -17.046473 3.067904 -29.687073 8.011741 -0.187557 3.085021 -1.685853 -0.256770 0.271450 0.170630 -0.056340 
-1.064100 16.842410 -1.119450 0.799285 -18.783436 0.767406 -14.918625 13.367183 3.201339 10.102553 -0.759374 -6.973501 -8.435237 4.559927 1.031200 -0.176419 4.218421 3.214586 -0.033210 -0.066130 -0.142260 18.369066 -10.569394 2.717366 -18.489180 -0.203602 -14.679019 -0.183337 -2.664630 1.004874 -0.017204 -3.095735 3.334510 0.084440 0.324680 0.011290 -3.948934 -2.659253 -7.668423 10.590505 -5.715464 10.038249 -10.485506 -3.721420 6.047584 1.415640 -7.039021 -12.252784 -15.207818 7.732635 30.794786 -1.271710 4.630240 -4.182740 15.657351 -0.435732 3.134034 32.880835 10.321361 2.696588 31.456837 -4.044018 0.126315 -4.357157 3.006660 0.170140 0.177930 -0.137940 0.090580 -18.544226 5.220975 5.491630 -33.263245 -17.262927 3.189845 -30.105543 7.278134 -0.093742 3.103471 -1.679577 -0.257720 0.275380 0.173790 -0.046930 
-1.137830 16.817520 -1.116640 1.148338 -19.365057 0.664386 -14.924382 13.408039 3.203616 10.645636 -0.679782 -6.440322 -8.403962 4.651257 1.169649 -0.164710 4.301550 3.191227 -0.034330 -0.065620 -0.156550 18.355586 -10.554812 2.731319 -18.441351 -0.191753 -14.822292 -0.472209 -2.589234 0.800882 -0.010459 -3.076615 3.347753 0.089060 0.337070 0.006150 -3.910197 -2.725599 -7.695794 9.884076 -5.818435 10.426085 -10.412418 -3.875552 5.482736 1.210850 -7.428790 -12.352271 -15.983188 8.025072 30.423767 -1.004780 4.478070 -4.134890 15.969426 0.296187 3.173610 32.357853 11.076422 2.852697 31.490241 -3.197307 0.276119 -4.377751 2.992936 0.167000 0.180690 -0.148460 0.096100 -18.362459 4.869145 5.472287 -33.207754 -17.287287 3.291528 -29.749842 6.101433 0.075928 3.107144 -1.651649 -0.262620 0.284180 0.179420 -0.041970 
-1.217180 16.786780 -1.113550 1.291230 -20.065043 0.430570 -14.900182 13.435946 3.214153 11.401750 -0.562495 -5.688946 -8.484288 4.792641 1.358637 -0.154044 4.411229 3.149523 -0.028540 -0.064240 -0.150820 18.363088 -10.608313 2.725320 -18.314055 -0.222449 -14.725955 -0.509057 -2.618297 1.122932 -0.016380 -3.053427 3.350540 0.091010 0.326710 0.002500 -3.940434 -2.680227 -7.713134 9.855365 -5.891684 11.039011 -10.779929 -3.931601 4.684930 1.145816 -7.768667 -12.384503 -16.749509 8.307156 30.592483 -0.733300 4.372540 -4.691620 15.975096 1.000363 3.077839 32.128541 11.555215 3.027219 31.546999 -2.363188 0.420972 -4.363583 2.969053 0.186180 0.164280 -0.140000 0.090400 -18.212929 4.485115 5.401861 -33.237768 -17.618924 3.568148 -29.549002 6.006738 0.168167 3.109513 -1.629171 -0.265720 0.291690 0.185550 -0.048000 
-1.302770 16.748450 -1.102550 1.082508 -21.164651 0.456762 -14.878076 13.508836 3.241803 12.291201 -0.463838 -4.877180 -8.302388 4.898910 1.371447 -0.129664 4.551669 3.113685 -0.068080 -0.120720 -0.178910 18.367104 -10.650198 2.694630 -17.733468 -0.194594 -14.818968 -0.428079 -2.664758 1.793822 0.005933 -2.994572 3.376484 0.060460 0.357610 0.007960 -3.956241 -2.732507 -7.711214 10.204879 -6.214684 11.478374 -10.955402 -4.287386 3.293231 1.141773 -8.122405 -12.652287 -17.563780 9.336604 30.524177 -0.398690 5.010990 -3.917170 15.823495 1.566070 3.260283 31.792752 12.959061 3.332409 31.923803 -1.258163 0.662487 -4.395398 2.935584 0.193230 0.176060 -0.156390 0.084250 -17.959404 4.158343 5.438318 -32.986608 -18.350197 3.856636 -30.620480 6.475547 0.211089 3.127269 -1.626120 -0.283080 0.296510 0.216290 -0.048830 
-1.394960 16.717570 -1.101840 1.203454 -21.221061 0.168708 -14.859921 13.606617 3.275288 13.038796 -0.424896 -4.447822 -8.274622 5.038107 1.676756 -0.105340 4.633132 3.086452 -0.077640 -0.136100 -0.185960 18.362850 -10.710574 2.626195 -17.429275 -0.344623 -14.492821 -0.293701 -2.803127 2.891489 0.005113 -2.954983 3.395948 0.043530 0.351910 -0.004080 -3.947830 -2.849149 -7.699895 9.999240 -6.885438 12.038241 -11.191532 -5.033124 1.927235 1.032574 -8.561967 -12.909013 -18.854538 10.007971 30.880791 0.139360 5.045630 -3.984170 15.456058 1.830179 3.387802 31.823728 14.284332 3.798505 32.420655 -1.790013 0.733245 -4.346649 2.917555 0.216220 0.153440 -0.146860 0.083800 -17.262761 4.056300 5.560203 -32.402704 -19.156159 3.935546 -32.275948 6.834323 0.255903 3.161272 -1.612370 -0.288180 0.305610 0.220120 -0.048240 
-1.493560 16.690210 -1.111070 1.084547 -21.318404 -0.297924 -14.841072 13.713127 3.320415 14.051257 -0.362186 -3.845790 -8.179787 5.194914 1.941292 -0.079515 4.751360 3.040864 -0.099470 -0.174050 -0.193510 18.359314 -10.806511 2.521836 -16.590236 -0.454042 -14.228009 -0.421223 -2.954250 4.566115 0.013144 -2.883715 3.423673 0.011560 0.342060 -0.004670 -3.934015 -2.936407 -7.670701 10.091742 -7.267358 12.551461 -11.502716 -5.422537 1.154726 1.200754 -8.955205 -13.337597 -20.335242 10.789995 31.893428 0.206110 5.338510 -3.642060 15.084304 1.758556 3.623046 31.697190 15.153170 3.987006 32.814428 -1.767101 0.813269 -4.309706 2.891567 0.246980 0.134070 -0.134670 0.074080 -17.104865 4.383089 5.850907 -32.018864 -19.752031 3.839528 -33.312623 6.648777 0.369213 3.194098 -1.578473 -0.293050 0.302230 0.235380 -0.055090 
-1.593810 16.656600 -1.121450 1.093175 -20.990030 -0.898750 -14.803896 13.800765 3.317361 14.644845 -0.308854 -3.308155 -7.383969 5.185920 2.240573 -0.075641 4.743898 3.035734 -0.081900 -0.155360 -0.181270 18.376232 -10.981554 2.402621 -15.760458 -0.607970 -14.116186 -0.970884 -3.078902 6.792020 0.012186 -2.827268 3.436889 0.013580 0.314500 -0.012490 -3.979720 -2.857711 -7.595571 10.125980 -7.462144 12.932072 -12.043292 -5.575806 1.175720 1.173979 -9.226256 -13.493511 -21.290743 10.908000 32.518742 0.605510 4.923620 -4.209810 14.915223 1.689198 3.715627 31.688233 15.367000 3.965814 32.868930 -1.213246 0.895744 -4.256958 2.879295 0.268030 0.101900 -0.112610 0.074350 -16.881788 4.595276 6.038896 -32.039383 -19.871751 3.715483 -32.936637 4.960001 0.651531 3.219799 -1.520142 -0.283740 0.302890 0.225130 -0.055020 
-1.692110 16.624940 -1.127340 1.122641 -20.601361 -1.556257 -14.748005 13.883001 3.289258 15.167265 -0.246044 -2.836753 -6.668292 5.251020 3.011235 -0.070104 4.721752 3.033905 -0.057170 -0.126650 -0.168900 18.401143 -11.191423 2.316972 -15.077594 -0.752640 -14.182817 -1.229110 -3.269220 9.289149 0.008437 -2.815823 3.432910 0.020080 0.283680 -0.023790 -4.060060 -2.685545 -7.527485 10.232769 -7.632141 13.659875 -12.797855 -5.721064 0.548224 1.117325 -9.503170 -13.572998 -22.133663 10.716830 32.908724 1.189560 4.151380 -4.846520 14.692845 1.565317 3.637116 32.159510 14.971834 3.981474 32.968139 -0.868441 0.960783 -4.178030 2.881769 0.281710 0.067200 -0.093530 0.077700 -16.538111 4.862019 6.143534 -32.416151 -20.251961 3.916809 -32.155896 4.343087 0.797609 3.226924 -1.485861 -0.268880 0.300110 0.208280 -0.051310 
-1.793950 16.596160 -1.139370 1.244261 -19.997083 -2.624517 -14.705386 13.985212 3.249161 15.587282 -0.138137 -2.195995 -5.869383 5.336598 3.993118 -0.075411 4.725159 3.029551 -0.042630 -0.103300 -0.168610 18.412429 -11.416126 2.226937 -14.251888 -0.891562 -14.084957 -1.921289 -3.418899 12.144509 0.001972 -2.863568 3.415945 0.031170 0.275090 -0.030420 -4.097029 -2.518038 -7.474750 9.723867 -7.582611 14.545820 -13.236854 -5.720947 0.267375 1.020656 -9.451240 -13.430253 -22.274313 10.580497 33.740540 1.786310 3.584350 -5.300330 14.398523 1.280859 3.436683 32.860113 13.824090 3.880391 33.120535 -0.553079 0.970208 -4.122277 2.871899 0.291850 0.053550 -0.081290 0.083300 -16.070916 4.992124 6.043577 -32.900915 -20.346826 4.159947 -31.445565 4.581886 0.795837 3.200148 -1.464956 -0.264310 0.311230 0.201600 -0.046720 
-1.893040 16.575470 -1.143500 1.391215 -19.388997 -3.677468 -14.642453 14.036558 3.167872 15.818368 -0.026290 -1.640489 -5.074695 5.420442 5.155202 -0.084847 4.707420 3.032039 -0.030110 -0.084650 -0.164200 18.452531 -11.626899 2.176532 -13.628405 -1.002751 -14.136648 -2.252888 -3.622732 14.741267 -0.015005 -2.953852 3.380112 0.037760 0.260370 -0.041590 -4.224503 -2.276937 -7.390120 9.806240 -7.863899 15.166913 -14.350206 -5.956314 0.522348 0.975926 -9.671329 -13.435104 -22.950180 10.357956 34.284467 2.228410 2.839310 -6.093390 14.377818 1.117379 3.380461 33.138021 13.525038 3.798781 33.112914 -0.650779 0.919690 -4.076451 2.854087 0.307550 0.030960 -0.065290 0.084990 -16.049015 5.174811 6.064351 -33.109782 -20.442266 4.332031 -30.067560 5.473363 0.693732 3.186061 -1.449953 -0.260440 0.326680 0.195690 -0.043270 
-1.992530 16.553620 -1.152670 1.518044 -18.988506 -4.677750 -14.605987 14.125055 3.107155 16.127275 0.060811 -1.126642 -4.394668 5.538055 6.371039 -0.082672 4.730462 3.024153 -0.033360 -0.086940 -0.174670 18.465595 -11.773947 2.144191 -12.806838 -0.975030 -14.461325 -2.587273 -3.789563 17.516016 -0.026535 -3.061731 3.338421 0.033340 0.261320 -0.051800 -4.268554 -2.172224 -7.339740 9.341515 -8.277364 16.062539 -14.700171 -6.460492 0.178123 0.921355 -9.943627 -13.682545 -23.802548 10.726321 34.597018 2.826130 2.573160 -6.177140 14.542012 1.056902 3.638600 32.821640 14.096768 3.695622 32.831309 0.346098 1.044262 -4.061451 2.828401 0.318960 0.016770 -0.061110 0.088900 -16.036365 5.354354 6.092947 -33.294533 -20.112610 4.336613 -29.626415 5.650349 0.687277 3.182517 -1.431482 -0.263750 0.338090 0.197870 -0.037790 
-2.093900 16.539080 -1.168880 1.766865 -18.780951 -5.804689 -14.588176 14.224760 3.055907 16.286791 0.152160 -0.500150 -3.904486 5.713308 7.779319 -0.074093 4.776488 3.001101 -0.025570 -0.079060 -0.173580 18.460451 -11.887502 2.141688 -11.769139 -0.870834 -14.773163 -3.221048 -3.811922 20.047472 -0.049707 -3.166740 3.292492 0.032340 0.248000 -0.059930 -4.254844 -2.114701 -7.326714 8.194553 -8.498318 17.207829 -14.523047 -6.865942 -0.129969 0.803363 -9.979065 -13.905171 -24.197026 10.889827 35.231353 3.740790 2.131290 -6.613090 14.882576 1.030943 3.841240 32.804133 14.520431 3.644038 32.153656 1.372917 1.135663 -4.035051 2.808510 0.337400 -0.008510 -0.047360 0.089990 -16.039816 5.359437 6.157233 -33.298768 -19.999587 4.241546 -29.658264 5.036111 0.785723 3.202207 -1.397354 -0.260930 0.342970 0.194750 -0.035310 
-2.188210 16.534550 -1.196690 2.017906 -18.742358 -7.327610 -14.542097 14.273837 2.970222 16.262742 0.285952 -0.025575 -3.667565 6.000816 9.805574 -0.064125 4.824845 2.962787 -0.011000 -0.065800 -0.157220 18.479351 -12.039847 2.182065 -10.913374 -0.758986 -14.682163 -3.218970 -4.038891 22.480413 -0.099844 -3.348764 3.214324 0.026800 0.210810 -0.064910 -4.321183 -1.899182 -7.299999 7.403137 -8.744663 18.881481 -15.009352 -7.222758 -0.059279 0.865852 -9.965362 -14.274400 -24.724151 11.247196 36.572053 4.520790 1.913280 -7.312280 15.180206 0.892447 4.014280 33.258508 15.311572 3.686517 30.895088 2.110750 1.129924 -3.981367 2.787365 0.369780 -0.047930 -0.016000 0.082470 -16.411974 5.481173 6.441435 -32.881147 -20.119743 4.056067 -29.132873 4.988690 0.812112 3.236372 -1.366411 -0.249420 0.337070 0.187320 -0.040360 
